<svg xmlns="http://www.w3.org/2000/svg" version="1.1" xmlns:xlink="http://www.w3.org/1999/xlink" xmlns:svgjs="http://svgjs.dev/svgjs" width="1500" height="314" viewBox="0 0 1500 314"><g transform="matrix(1,0,0,1,-0.9090909090909918,-0.23833041104435893)"><svg viewBox="0 0 396 83" data-background-color="#ffffff" preserveAspectRatio="xMidYMid meet" height="314" width="1500" xmlns="http://www.w3.org/2000/svg" xmlns:xlink="http://www.w3.org/1999/xlink"><g id="tight-bounds" transform="matrix(1,0,0,1,0.2400000000000091,0.06299816597669405)"><svg viewBox="0 0 395.52 82.87400366804661" height="82.87400366804661" width="395.52"><g><svg viewBox="0 0 495.0845418006496 103.73593783672182" height="82.87400366804661" width="395.52"><g transform="matrix(1,0,0,1,0,11.07330387843696)"><svg viewBox="0 0 395.52 81.5893300798479" height="81.5893300798479" width="395.52"><g id="textblocktransform"><svg viewBox="0 0 395.52 81.5893300798479" height="81.5893300798479" width="395.52" id="textblock"><g><rect width="395.52" height="68.46002699619771" fill="none" stroke-width="9.018103199999999" stroke="#d69723" data-fill-palette-color="none" data-stroke-palette-color="tertiary"></rect><rect width="395.52" height="13.129303083650191" y="68.46002699619771" fill="#d69723" data-fill-palette-color="tertiary"></rect></g><g><svg viewBox="0 0 395.52 68.46002699619771" height="68.46002699619771" width="395.52"><g transform="matrix(1,0,0,1,23.607599999999998,23.607599999999998)"><svg width="348.3048" viewBox="1.5 -28.75 638.5699999999999 38.5" height="21.24482699619772" data-palette-color="#f09d09"><g class="wordmark-text-0" data-fill-palette-color="primary" id="text-0"><path d="M35.95-28.75L35.95-23.1 21.55-23.1 21.55 0 14.65 0 14.65-23.1 1.5-23.1 1.5-28.75 35.95-28.75ZM42.45 0.05L42.45-28.75 48.6-28.75 48.6-22 56.2-22 56.2-17.2 48.6-17.2 48.6 0.05 42.45 0.05ZM72.2 0.05L72.2-18.55 66.55-22 58.4-22 58.4-17.2 65.9-17.2 65.9 0.05 72.2 0.05ZM110.9-18.55L110.9-12.85 105-9.4 97-9.4 97-13.25 104.55-13.25 104.55-17.35 97-17.35 97-22.05 105-22.05 110.9-18.55ZM104.35-6.95L110.9-6.95 110.9-3.45 105 0 97 0 97-5.3 104.35-5.3 104.35-6.95ZM80.7-18.55L80.7-3.45 86.6 0 94.55 0 94.55-5.3 87-5.3 87-9.4 94.55-9.4 94.55-13.25 87-13.25 87-17.35 94.55-17.35 94.55-22.05 86.6-22.05 80.7-18.55Z" fill="#f09d09" data-fill-palette-color="primary"></path><path d="M160.2-21.85L160.2 0 153.95 0 153.95-2.25 146.45 0 146.45-5.25 153.95-5.25 153.95-21.85 160.2-21.85ZM130.4-21.85L130.4-3.45 136.05 0 144.15 0 144.15-5.25 136.7-5.25 136.7-21.85 130.4-21.85ZM170.2-0.05L170.2-22 176.55-22 176.55-19.85 183.95-22 183.95-17.3 176.55-17.3 176.55-0.05 170.2-0.05ZM200.15-0.05L200.15-18.55 194.25-22 186.35-22 186.35-17.3 193.9-17.3 193.9-0.05 200.15-0.05ZM209.64 0.05L209.64-28.75 215.79-28.75 215.79-22 223.39-22 223.39-17.2 215.79-17.2 215.79 0.05 209.64 0.05ZM239.39 0.05L239.39-18.55 233.74-22 225.59-22 225.59-17.2 233.09-17.2 233.09 0.05 239.39 0.05ZM278.09-18.55L278.09-12.85 272.19-9.4 264.19-9.4 264.19-13.25 271.74-13.25 271.74-17.35 264.19-17.35 264.19-22.05 272.19-22.05 278.09-18.55ZM271.54-6.95L278.09-6.95 278.09-3.45 272.19 0 264.19 0 264.19-5.3 271.54-5.3 271.54-6.95ZM247.89-18.55L247.89-3.45 253.79 0 261.74 0 261.74-5.3 254.19-5.3 254.19-9.4 261.74-9.4 261.74-13.25 254.19-13.25 254.19-17.35 261.74-17.35 261.74-22.05 253.79-22.05 247.89-18.55ZM286.09-3.4L286.09-9.75 291.79-13.2 299.99-13.2 299.99-9.35 292.44-9.35 292.44-5.25 299.99-5.25 299.99 0.05 291.79 0.05 286.09-3.4ZM292.44-15.05L286.09-15.05 286.09-18.5 291.79-22 299.99-22 299.99-17.3 292.44-17.3 292.44-15.05ZM316.09 0.05L316.09-18.5 310.39-22 302.19-22 302.19-17.3 309.74-17.3 309.74-13.2 302.19-13.2 302.19-9.35 309.74-9.35 309.74-5.25 302.39-5.25 302.39 0.05 316.09 0.05ZM325.59 0.05L325.59-28.75 331.99-28.75 331.99 0.05 325.59 0.05ZM350.48-17.2L350.48-21.85 357.98-21.85 357.98-17.2 350.48-17.2ZM357.98-7.5L364.28-7.5 364.28-3.45 358.58 0 350.48 0 350.48-5.25 357.98-5.25 357.98-7.5ZM337.48-19.35L348.23-25.3 348.23-5.25 348.23 0 341.98-3.45 341.98-17.2 337.48-17.15 337.48-19.35ZM370.78 0.05L370.78-28.75 376.93-28.75 376.93-22 384.53-22 384.53-17.2 376.93-17.2 376.93 0.05 370.78 0.05ZM400.53 0.05L400.53-18.55 394.88-22 386.73-22 386.73-17.2 394.23-17.2 394.23 0.05 400.53 0.05ZM409.53-6.35L409.53-21.9 415.83-21.9 415.83-6.9 423.33-6.9 423.33-2.9 415.28-2.9 409.53-6.35ZM409.53 2.25L415.83 2.25 415.83 4.55 423.33 4.55 423.33 9.75 415.28 9.75 409.53 6.3 409.53 2.25ZM433.13-21.9L439.43-21.9 439.43 6.3 433.13 9.75 425.63 9.75 425.63 4.55 433.13 4.55 433.13-2.9 425.63-2.9 425.63-6.9 433.13-6.9 433.13-21.9Z" fill="#d69723" data-fill-palette-color="secondary"></path><path d="M460.63-28.75L460.63-28.75 470.93-11.5 470.93 0 454.93-26.9 460.63-28.75ZM483.73-28.75L483.73-28.75 473.38-11.5 473.38 0 489.38-26.9 483.73-28.75ZM524.08-18.55L524.08-12.85 518.18-9.4 510.18-9.4 510.18-13.25 517.73-13.25 517.73-17.35 510.18-17.35 510.18-22.05 518.18-22.05 524.08-18.55ZM517.53-6.95L524.08-6.95 524.08-3.45 518.18 0 510.18 0 510.18-5.3 517.53-5.3 517.53-6.95ZM493.88-18.55L493.88-3.45 499.78 0 507.73 0 507.73-5.3 500.18-5.3 500.18-9.4 507.73-9.4 507.73-13.25 500.18-13.25 500.18-17.35 507.73-17.35 507.73-22.05 499.78-22.05 493.88-18.55ZM538.52 2.25L532.07 2.25 532.07 6.3 537.92 9.75 545.82 9.75 545.82 4.5 538.52 4.5 538.52 2.25ZM532.07-6.3L532.07-18.55 537.92-22 545.82-22 545.82-17.2 538.42-17.2 538.42-6.85 545.82-6.85 545.82-2.8 537.92-2.8 532.07-6.3ZM562.12 6.3L562.12-22 548.32-22 548.32-17.2 555.77-17.2 555.77-6.85 548.32-6.85 548.32-2.8 555.77-2.8 555.77 4.5 548.32 4.5 548.32 9.75 556.27 9.75 562.12 6.3ZM570.62-3.4L570.62-9.75 576.32-13.2 584.52-13.2 584.52-9.35 576.97-9.35 576.97-5.25 584.52-5.25 584.52 0.05 576.32 0.05 570.62-3.4ZM576.97-15.05L570.62-15.05 570.62-18.5 576.32-22 584.52-22 584.52-17.3 576.97-17.3 576.97-15.05ZM600.62 0.05L600.62-18.5 594.92-22 586.72-22 586.72-17.3 594.27-17.3 594.27-13.2 586.72-13.2 586.72-9.35 594.27-9.35 594.27-5.25 586.92-5.25 586.92 0.05 600.62 0.05ZM610.12-0.05L610.12-22 616.47-22 616.47-19.85 623.87-22 623.87-17.3 616.47-17.3 616.47-0.05 610.12-0.05ZM640.07-0.05L640.07-18.55 634.17-22 626.27-22 626.27-17.3 633.82-17.3 633.82-0.05 640.07-0.05Z" fill="#206010" data-fill-palette-color="accent"></path></g></svg></g></svg></g></svg></g></svg></g><g transform="matrix(1,0,0,1,407.3238,0)"><svg viewBox="0 0 87.76074180064964 103.73593783672182" height="103.73593783672182" width="87.76074180064964"><g><svg xmlns="http://www.w3.org/2000/svg" xmlns:xlink="http://www.w3.org/1999/xlink" version="1.1" x="0" y="0" viewBox="7.6995965376951405 0.00007206139214305154 84.60007244275441 99.99992793860785" enable-background="new 0 0 100 100" xml:space="preserve" height="103.73593783672182" width="87.76074180064964" class="icon-icon-0" data-fill-palette-color="accent" id="icon-0"><path d="M92.192 9.415l-0.141-1.639-1.591-0.415c-2.436-0.637-4.947-0.959-7.467-0.959-6.904 0-13.617 2.454-18.904 6.911-7.002 5.907-10.825 14.776-10.379 23.905-0.558 0.706-1.088 1.417-1.602 2.129-0.027-8.264-2.624-16.431-7.626-23.242C36.937 5.826 24.716-0.234 11.903 0.007l-1.645 0.029L9.737 1.597c-4.066 12.167-1.97 25.591 5.606 35.906 6.592 8.979 16.756 14.724 27.76 15.879 0.182 1.969 0.006 4.021-0.59 6.276-0.399 1.517-0.73 3.022-1.012 4.515-0.033 0.177-0.065 0.352-0.098 0.527-0.05 0.273-0.1 0.547-0.146 0.82-0.147 0.859-0.274 1.702-0.384 2.532-1.688-2.44-3.962-4.47-6.671-5.854-2.554-1.304-5.409-1.993-8.257-1.993-2.942 0-5.878 0.725-8.489 2.097l-1.456 0.766 0.233 1.627c0.838 5.849 4.475 10.943 9.727 13.628 2.554 1.305 5.41 1.995 8.261 1.995h0.001c2.053 0 4.1-0.361 6.039-1.041 0.221 10.988 2.697 18.716 2.83 19.119 0.084 0.256 0.209 0.485 0.363 0.688 0.002 0.002 0.004 0.009 0.006 0.01l0.001-0.001c0.438 0.568 1.12 0.907 1.841 0.907 0.24 0 0.484-0.037 0.724-0.115 1.222-0.398 1.89-1.713 1.492-2.935-0.005-0.015-0.067-0.21-0.17-0.57-0.001-0.003-0.003-0.007-0.003-0.011-0.065-0.229-0.148-0.53-0.241-0.887-0.021-0.076-0.039-0.15-0.061-0.232-0.019-0.075-0.039-0.156-0.06-0.235-0.026-0.107-0.053-0.216-0.082-0.331-0.018-0.072-0.035-0.147-0.053-0.224-0.035-0.146-0.071-0.298-0.107-0.455-0.013-0.056-0.025-0.11-0.039-0.169-1.035-4.539-2.547-13.596-1.341-24.124 0.017-0.146 0.034-0.289 0.052-0.435 0.052-0.43 0.107-0.861 0.17-1.296 0.018-0.128 0.037-0.255 0.055-0.383 0.071-0.478 0.146-0.958 0.229-1.44 0.008-0.048 0.016-0.094 0.024-0.142 0.294-1.7 0.665-3.427 1.124-5.171 0.041-0.154 0.073-0.305 0.111-0.457 0.631-2.345 1.393-4.616 2.288-6.812l0.151-0.003 0.521-1.561c0.006-0.018 0.01-0.035 0.016-0.053 1.791-4.027 4.044-7.793 6.75-11.299 2.006 0.424 4.054 0.65 6.107 0.65 0 0 0 0 0.001 0 6.906 0 13.622-2.455 18.907-6.911C89.149 28.263 93.008 18.922 92.192 9.415zM19.098 34.748c-6.352-8.649-8.336-19.775-5.435-30.074 10.684 0.319 20.74 5.571 27.066 14.188 6.065 8.258 8.137 18.772 5.788 28.67-1.935-5.265-5.825-10.29-10.636-16.504-1.975-2.55-4.211-5.438-6.523-8.621-0.755-1.041-2.212-1.271-3.252-0.516-1.041 0.756-1.271 2.211-0.516 3.252 2.354 3.241 4.613 6.16 6.607 8.736 4.557 5.885 7.974 10.307 9.707 14.658C32.85 47.139 24.575 42.207 19.098 34.748zM34.225 75.661L34.225 75.661c-2.148 0-4.215-0.5-6.142-1.485-3.394-1.734-5.879-4.82-6.884-8.453 1.518-0.565 3.131-0.859 4.749-0.859 2.145 0 4.211 0.499 6.138 1.483 3.393 1.734 5.88 4.821 6.886 8.456C37.454 75.367 35.84 75.661 34.225 75.661zM78.868 30.839c-4.446 3.75-10.095 5.814-15.905 5.814-0.863 0-1.726-0.05-2.584-0.14 4.047-4.33 8.874-8.202 14.481-11.598 1.101-0.666 1.452-2.098 0.785-3.198-0.666-1.1-2.098-1.451-3.198-0.786-5.443 3.297-9.979 6.917-13.771 10.711 0.969-5.703 3.909-10.968 8.417-14.77 4.446-3.749 10.094-5.814 15.9-5.814 1.56 0 3.115 0.146 4.645 0.438C87.768 18.907 84.562 26.039 78.868 30.839z" fill="#206010" data-fill-palette-color="accent"></path></svg></g></svg></g></svg></g><defs></defs></svg><rect width="395.52" height="82.87400366804661" fill="none" stroke="none" visibility="hidden"></rect></g></svg></g></svg>